# xmcd
#
# Track frame offsets: 
#        150
#        13623
#        29608
#        43125
#        54862
#        65283
#        77773
#        89397
#        102764
#        115156
#        128798
#        139910
#        150075
#        160788
#        173048
#        184120
#        192867
#        203805
#
# Disc length: 2929 seconds
#
# Revision: 2
# Processed by: cddbd v1.5.2PL0 Copyright (c) Steve Scherf et al.
# Submitted via: ExactAudioCopyFreeDBPlugin 1.0
#
DISCID=e20b6f12
DTITLE=Various Artist - 2008 - Country Ladies
DYEAR=2008
DGENRE=Country
TTITLE0=Lynn Anderson - Rose Garden
TTITLE1=Billie Jo Spears - Blanket on the Ground
TTITLE2=Patti Page - Tennessee Waltz
TTITLE3=Sandy Posney - Single Girl
TTITLE4=Dolly Parton - Release Me
TTITLE5=Skeeter Davis - The End of the World
TTITLE6=Patsy Cline - The Heart You Break May Be Your Own
TTITLE7=Donna Fargo - Daddy
TTITLE8=Wanda Jackson - Right or Wrong
TTITLE9=Wilma Burgess - Baby
TTITLE10=Sammy Smith - Help Me Make it Throught the Night
TTITLE11=Jan Howard - The One You Sleep Around With
TTITLE12=Barbara Mandrell - The Wayward Wind
TTITLE13=Lynn Anderson - How Can I Unlove You
TTITLE14=Dolly Parton - Honky Tonk Angels
TTITLE15=Sandy Posney - Born a Woman
TTITLE16=Maxine Brown - I Wanna Thank You 
TTITLE17=Anne Murray - There Goes my Everything
EXTD=
EXTT0=
EXTT1=
EXTT2=
EXTT3=
EXTT4=
EXTT5=
EXTT6=
EXTT7=
EXTT8=
EXTT9=
EXTT10=
EXTT11=
EXTT12=
EXTT13=
EXTT14=
EXTT15=
EXTT16=
EXTT17=
PLAYORDER=
